<?xml version="1.0" encoding="UTF-8"?>
<svg id="Layer_1" data-name="Layer 1" xmlns="http://www.w3.org/2000/svg" viewBox="0 0 160 160">
  <defs>
    <style>
      .cls-1, .cls-2 {
        stroke: #0059d5;
      }

      .cls-1, .cls-2, .cls-3, .cls-4 {
        stroke-miterlimit: 10;
      }

      .cls-1, .cls-2, .cls-5 {
        fill: #0059d5;
      }

      .cls-1, .cls-4 {
        stroke-width: .98px;
      }

      .cls-2, .cls-3 {
        stroke-width: .61px;
      }

      .cls-3, .cls-4 {
        fill: #fff;
        stroke: #006cd5;
      }

      .cls-6 {
        fill: #fed841;
      }
    </style>
  </defs>
  <g>
    <g>
      <g>
        <path class="cls-1" d="M33.36,72.97h9.29c1.27,0,1.96.62,1.96,1.78l.1,25.06c0,3.92-3.81,6.99-9.58,6.99-3.96,0-6.8-1.25-6.8-4.1s3.08-3.25,3.08-5.92v-22.03c0-1.16.68-1.78,1.96-1.78Z"/>
        <path class="cls-1" d="M49.59,104.58v-29.82c0-1.16.68-1.78,1.96-1.78h15.64c4.74,0,8.51,3.47,8.51,7.79,0,3.96-2.59,6.14-6.16,7.83,4.2,1.96,7.58,4.54,7.58,9.12s-4.25,8.63-9.48,8.63h-16.08c-1.27,0-1.96-.62-1.96-1.78Z"/>
        <path class="cls-1" d="M79.32,89.67c0-9.35,7.68-17.14,18.92-17.14s18.92,7.79,18.92,17.14-7.68,17.14-18.92,17.14-18.92-7.79-18.92-17.14Z"/>
        <path class="cls-1" d="M123.03,72.97h9.29c1.27,0,1.96.62,1.96,1.78v29.82c0,1.16-.68,1.78-1.96,1.78h-9.29c-1.27,0-1.96-.62-1.96-1.78v-29.82c0-1.16.68-1.78,1.96-1.78Z"/>
      </g>
      <g>
        <path class="cls-4" d="M29.15,75.91h9.29c1.27,0,1.96.62,1.96,1.78l.1,25.06c0,3.92-3.81,6.99-9.58,6.99-3.96,0-6.8-1.25-6.8-4.1s3.08-3.25,3.08-5.92v-22.03c0-1.16.68-1.78,1.96-1.78Z"/>
        <path class="cls-4" d="M45.39,107.51v-29.82c0-1.16.68-1.78,1.96-1.78h15.64c4.74,0,8.51,3.47,8.51,7.79,0,3.96-2.59,6.14-6.16,7.83,4.2,1.96,7.58,4.54,7.58,9.12s-4.25,8.63-9.48,8.63h-16.08c-1.27,0-1.96-.62-1.96-1.78Z"/>
        <path class="cls-4" d="M75.11,92.6c0-9.35,7.68-17.14,18.92-17.14s18.92,7.79,18.92,17.14-7.68,17.14-18.92,17.14-18.92-7.79-18.92-17.14Z"/>
        <path class="cls-4" d="M118.82,75.91h9.29c1.27,0,1.96.62,1.96,1.78v29.82c0,1.16-.68,1.78-1.96,1.78h-9.29c-1.27,0-1.96-.62-1.96-1.78v-29.82c0-1.16.68-1.78,1.96-1.78Z"/>
      </g>
    </g>
    <g>
      <g>
        <path class="cls-2" d="M92.11,119.28h-4.42v-1.68c0-2.83,2.37-5.13,5.3-5.13s5.28,2.3,5.28,5.13c0,1.24-.71,2.35-1.4,3.18l-.29.35h1.88v4.77h-10.94l4.61-6.63Z"/>
        <path class="cls-2" d="M99.54,120.64v-2.72c0-3.02,2.69-5.48,6.01-5.48s6.01,2.46,6.01,5.48v2.72c0,3.02-2.69,5.48-6.01,5.48s-6.01-2.46-6.01-5.48Z"/>
        <path class="cls-2" d="M116.98,119.28h-4.42v-1.68c0-2.83,2.37-5.13,5.3-5.13s5.28,2.3,5.28,5.13c0,1.24-.71,2.35-1.4,3.18l-.29.35h1.88v4.77h-10.94l4.61-6.63Z"/>
        <path class="cls-2" d="M124.12,120.36c0-.95.24-1.86.66-2.65l2.91-5.06h5.46l-1.35,2.25c2.38.74,4.08,2.9,4.08,5.46,0,3.15-2.6,5.71-5.88,5.71s-5.88-2.56-5.88-5.71Z"/>
      </g>
      <g>
        <path class="cls-3" d="M90.29,121.51h-4.42v-1.68c0-2.83,2.37-5.13,5.3-5.13s5.28,2.3,5.28,5.13c0,1.24-.71,2.35-1.4,3.18l-.29.35h1.88v4.77h-10.94l4.61-6.63Z"/>
        <path class="cls-3" d="M97.72,122.87v-2.72c0-3.02,2.69-5.48,6.01-5.48s6.01,2.46,6.01,5.48v2.72c0,3.02-2.69,5.48-6.01,5.48s-6.01-2.46-6.01-5.48Z"/>
        <path class="cls-3" d="M115.16,121.51h-4.42v-1.68c0-2.83,2.37-5.13,5.3-5.13s5.28,2.3,5.28,5.13c0,1.24-.71,2.35-1.4,3.18l-.29.35h1.88v4.77h-10.94l4.61-6.63Z"/>
        <path class="cls-3" d="M122.3,122.59c0-.95.24-1.86.66-2.65l2.91-5.06h5.46l-1.35,2.25c2.38.74,4.08,2.9,4.08,5.46,0,3.15-2.6,5.71-5.88,5.71s-5.88-2.56-5.88-5.71Z"/>
      </g>
    </g>
  </g>
  <g>
    <g>
      <g>
        <line class="cls-5" x1="81.64" y1="57.12" x2="135.41" y2="57.11"/>
        <rect class="cls-5" x="81.64" y="52" width="53.77" height="10.23"/>
      </g>
      <rect class="cls-5" x="28.75" y="52.01" width="52.89" height="10.22"/>
      <path class="cls-5" d="M99.02,62.23h-34.77c-8.79,0-15.95-7.15-15.95-15.95v-3.01c0-8.79,7.15-15.95,15.95-15.95h34.77c8.79,0,15.95,7.15,15.95,15.95v3.01c0,8.79-7.15,15.95-15.95,15.95ZM64.25,37.57c-3.15,0-5.71,2.56-5.71,5.71v3.01c0,3.15,2.56,5.71,5.71,5.71h34.77c3.15,0,5.71-2.56,5.71-5.71v-3.01c0-3.15-2.56-5.71-5.71-5.71h-34.77Z"/>
    </g>
    <g>
      <line class="cls-5" x1="77.48" y1="59.29" x2="131.25" y2="59.28"/>
      <rect class="cls-5" x="77.48" y="54.17" width="53.77" height="10.23"/>
    </g>
    <rect class="cls-6" x="77.48" y="56.09" width="51.65" height="6.38"/>
    <path class="cls-5" d="M94.86,64.4h-34.77c-8.79,0-15.95-7.15-15.95-15.95v-3.01c0-8.79,7.15-15.95,15.95-15.95h34.77c8.79,0,15.95,7.15,15.95,15.95v3.01c0,8.79-7.15,15.95-15.95,15.95ZM60.09,39.73c-3.15,0-5.71,2.56-5.71,5.71v3.01c0,3.15,2.56,5.71,5.71,5.71h34.77c3.15,0,5.71-2.56,5.71-5.71v-3.01c0-3.15-2.56-5.71-5.71-5.71h-34.77Z"/>
    <path class="cls-6" d="M94.86,62.48h-34.77c-7.73,0-14.02-6.29-14.02-14.02v-3.01c0-7.73,6.29-14.02,14.02-14.02h34.77c7.73,0,14.02,6.29,14.02,14.02v3.01c0,7.73-6.29,14.02-14.02,14.02ZM60.09,37.81c-4.21,0-7.63,3.42-7.63,7.63v3.01c0,4.21,3.42,7.63,7.63,7.63h34.77c4.21,0,7.63-3.42,7.63-7.63v-3.01c0-4.21-3.42-7.63-7.63-7.63h-34.77Z"/>
    <rect class="cls-5" x="24.59" y="54.18" width="52.89" height="10.22"/>
    <rect class="cls-6" x="26.63" y="56.08" width="51.65" height="6.39"/>
  </g>
</svg>
